<svg width="235" height="226" viewBox="0 0 235 226" fill="none" xmlns="http://www.w3.org/2000/svg">
<path d="M172.923 47.7547C149.431 75.3005 126.455 102.247 103.474 129.189C99.8578 133.418 96.3487 137.478 92.6936 141.901C87.9117 147.752 83.4654 149.055 77.2168 144.921C74.376 143.041 71.2633 141.567 67.0745 139.246L173.662 14.4868C210.371 42.9959 212.757 112.221 174.544 146.135C176.811 133.055 168.729 122.356 175.089 109.908C185.401 89.73 184.012 64.6735 172.923 47.7547Z" fill="#D02127"/>
<path d="M62.6845 102.311C86.1759 74.7653 109.152 47.8198 132.133 20.8771C135.749 16.6478 139.28 12.5717 142.914 8.16448C148.092 2.02149 152.142 1.01044 158.39 5.14433C161.231 7.02469 164.344 8.49715 168.533 10.8201L61.9453 135.579C25.2364 107.07 22.8498 37.8437 61.063 3.93078C58.7965 17.0094 66.8777 27.7086 60.5177 40.158C50.2061 60.3372 51.5947 85.3936 62.6845 102.311Z" fill="white"/>
<path d="M26.8518 213.013V212.129H22.4634V220.28H23.5164V216.592H26.5987V215.724H23.5164V213.016L26.8518 213.013Z" fill="white"/>
<path d="M32.794 218.682V214.427H31.7294V218.018C31.7304 218.204 31.6981 218.389 31.6339 218.564C31.521 218.845 31.3277 219.086 31.0781 219.258C30.8285 219.43 30.5338 219.525 30.2309 219.53C29.2632 219.53 28.9291 218.781 28.9291 217.668V214.427H27.866V217.849C27.866 219.904 28.9667 220.414 29.891 220.414C30.2811 220.42 30.666 220.322 31.006 220.131C31.3461 219.939 31.6292 219.661 31.8263 219.324H31.8494L31.9102 220.279H32.8547C32.807 219.821 32.794 219.288 32.794 218.682Z" fill="white"/>
<path d="M34.5627 211.694V220.28H35.6273V211.694H34.5627Z" fill="white"/>
<path d="M37.4209 211.694V220.28H38.484V211.694H37.4209Z" fill="white"/>
<path d="M39.7556 216.616V217.402H42.7425V216.616H39.7556Z" fill="white"/>
<path d="M46.4681 215.662C45.3443 215.228 44.8481 214.85 44.8481 214.09C44.8481 213.533 45.2719 212.867 46.3842 212.867C46.9242 212.865 47.4562 212.998 47.9319 213.254L48.2212 212.396C47.8596 212.19 47.2535 211.997 46.4204 211.997C44.8293 211.997 43.7821 212.94 43.7821 214.21C43.7821 215.367 44.6051 216.049 45.9359 216.524C47.0366 216.948 47.472 217.383 47.472 218.145C47.472 218.968 46.8428 219.535 45.7652 219.535C45.1023 219.528 44.4534 219.344 43.8848 219.003L43.6201 219.887C44.054 220.176 44.9132 220.406 45.6986 220.406C47.6238 220.406 48.5539 219.318 48.5539 218.06C48.5495 216.858 47.8495 216.194 46.4681 215.662Z" fill="white"/>
<path d="M54.7694 217.052C54.7694 215.976 54.2603 214.295 52.3495 214.295C50.6442 214.295 49.6013 215.685 49.6013 217.451C49.6013 219.217 50.6775 220.402 52.4797 220.402C53.1475 220.419 53.8114 220.295 54.4281 220.039L54.2458 219.278C53.7336 219.493 53.1811 219.596 52.6258 219.579C51.5612 219.579 50.6413 218.987 50.6182 217.554H54.739C54.7595 217.387 54.7696 217.22 54.7694 217.052ZM53.741 216.786H50.6341C50.718 216.049 51.1895 215.05 52.2656 215.05C53.4633 215.057 53.754 216.11 53.741 216.786Z" fill="white"/>
<path d="M58.6791 214.295C57.966 214.295 57.3252 214.789 57.0576 215.576H57.0113L56.9737 214.428H56.0408C56.0755 214.971 56.0871 215.563 56.0871 216.254V220.28H57.1401V217.16C57.1427 216.994 57.1587 216.829 57.1878 216.665C57.3324 215.867 57.8662 215.298 58.6154 215.298C58.7374 215.296 58.8593 215.308 58.9785 215.335V214.331C58.8807 214.305 58.78 214.293 58.6791 214.295Z" fill="white"/>
<path d="M64.0511 214.428L62.9142 217.718C62.7203 218.251 62.5511 218.731 62.4195 219.215H62.3819C62.2513 218.708 62.0939 218.209 61.9103 217.718L60.7619 214.428H59.6235L61.8496 220.28H62.8621L65.1605 214.428H64.0511Z" fill="white"/>
<path d="M66.7027 212.117C66.6147 212.115 66.5272 212.13 66.4455 212.163C66.3638 212.196 66.2896 212.245 66.2273 212.307C66.1651 212.369 66.1162 212.443 66.0835 212.525C66.0508 212.607 66.0351 212.694 66.0373 212.782C66.0385 212.912 66.078 213.039 66.1509 213.147C66.2238 213.254 66.3269 213.338 66.4471 213.387C66.5674 213.436 66.6996 213.449 66.827 213.423C66.9544 213.397 67.0714 213.335 67.1632 213.243C67.2551 213.151 67.3178 213.034 67.3435 212.907C67.3691 212.779 67.3565 212.647 67.3073 212.527C67.2581 212.406 67.1745 212.303 67.0669 212.23C66.9593 212.158 66.8326 212.118 66.7027 212.117ZM66.1704 214.431V220.283H67.235V214.431H66.1704Z" fill="white"/>
<path d="M71.6868 219.55C70.5297 219.55 69.6618 218.715 69.6618 217.36C69.6618 216.139 70.385 215.149 71.7302 215.149C72.1584 215.133 72.5834 215.228 72.964 215.425L73.207 214.603C72.7419 214.399 72.2384 214.295 71.7302 214.301C69.8195 214.301 68.5857 215.603 68.5857 217.409C68.5857 219.216 69.7342 220.396 71.5003 220.396C72.0786 220.409 72.6526 220.293 73.181 220.058L72.993 219.261C72.5847 219.454 72.1384 219.552 71.6868 219.55Z" fill="white"/>
<path d="M79.0912 217.052C79.0912 215.976 78.5835 214.295 76.6728 214.295C74.9674 214.295 73.9246 215.685 73.9246 217.451C73.9246 219.217 75.0007 220.402 76.8044 220.402C77.4712 220.419 78.1341 220.295 78.7498 220.039L78.569 219.278C78.0568 219.493 77.5044 219.596 76.949 219.579C75.8845 219.579 74.9645 218.987 74.9399 217.554H79.0522C79.0755 217.387 79.0885 217.22 79.0912 217.052ZM78.0628 216.786H74.9544C75.0412 216.049 75.5127 215.05 76.5889 215.05C77.7865 215.057 78.0758 216.11 78.0628 216.786Z" fill="white"/>
<path d="M86.4738 215.915V215.892C87.333 215.577 87.8522 214.879 87.8522 214.101C87.8648 213.824 87.8096 213.548 87.6914 213.298C87.5731 213.047 87.3955 212.829 87.1739 212.662C86.6676 212.251 85.9907 212.068 84.9377 212.068C84.2929 212.063 83.6491 212.121 83.0154 212.24V220.257C83.5565 220.326 84.1016 220.357 84.647 220.353C85.9777 220.353 86.8976 220.111 87.4646 219.592C87.6866 219.383 87.8624 219.129 87.9808 218.848C88.0991 218.567 88.1573 218.264 88.1517 217.959C88.1517 216.75 87.2476 216.11 86.4738 215.915ZM84.0684 212.953C84.3749 212.895 84.6867 212.87 84.9984 212.879C86.063 212.879 86.7877 213.254 86.7877 214.21C86.7877 214.997 86.1353 215.577 85.0216 215.577H84.0684V212.953ZM84.9493 219.531C84.6548 219.538 84.3603 219.522 84.0684 219.483V216.375H84.9362C86.0847 216.375 87.0408 216.834 87.0408 217.947C87.0422 219.132 86.037 219.531 84.9493 219.531Z" fill="white"/>
<path d="M92.1249 214.295C91.4118 214.295 90.7696 214.789 90.5049 215.576H90.4557L90.421 214.428H89.4895C89.5242 214.971 89.5358 215.563 89.5358 216.254V220.28H90.5888V217.16C90.5904 216.994 90.6069 216.828 90.638 216.665C90.7826 215.867 91.3149 215.298 92.0656 215.298C92.1871 215.296 92.3085 215.309 92.4272 215.335V214.331C92.3285 214.305 92.2268 214.293 92.1249 214.295Z" fill="white"/>
<path d="M97.5534 218.879V216.689C97.5534 215.517 97.1194 214.295 95.3288 214.295C94.6509 214.285 93.9838 214.465 93.4036 214.816L93.6466 215.517C94.1043 215.234 94.6316 215.084 95.1696 215.083C96.3673 215.083 96.5004 215.951 96.5004 216.438V216.558C94.2396 216.547 92.9812 217.321 92.9812 218.728C92.9812 219.574 93.5873 220.41 94.7719 220.41C95.1176 220.418 95.4602 220.343 95.7713 220.193C96.0824 220.042 96.3532 219.819 96.5611 219.542H96.5973L96.6812 220.279H97.6503C97.5783 219.816 97.5458 219.347 97.5534 218.879ZM96.525 218.309C96.5221 218.424 96.5021 218.539 96.4656 218.649C96.364 218.941 96.172 219.194 95.9175 219.37C95.663 219.546 95.3591 219.637 95.0496 219.629C94.5057 219.629 94.0458 219.301 94.0458 218.617C94.0458 217.481 95.3635 217.276 96.525 217.299V218.309Z" fill="white"/>
<path d="M102.182 214.295C101.79 214.285 101.403 214.382 101.062 214.575C100.721 214.769 100.44 215.052 100.248 215.394H100.224L100.163 214.428H99.2183C99.2559 214.912 99.2674 215.407 99.2674 216.019V220.287H100.332V216.768C100.324 216.359 100.476 215.963 100.757 215.666C101.037 215.368 101.423 215.193 101.832 215.177C102.836 215.177 103.186 215.964 103.186 216.913V220.286H104.249V216.791C104.247 214.776 102.992 214.295 102.182 214.295Z" fill="white"/>
<path d="M111.038 218.77V211.694H109.974V215.189H109.949C109.683 214.717 109.081 214.295 108.183 214.295C106.757 214.295 105.548 215.491 105.559 217.438C105.559 219.216 106.647 220.415 108.063 220.415C109.018 220.415 109.731 219.917 110.058 219.258H110.081L110.132 220.27H111.085C111.05 219.883 111.038 219.288 111.038 218.77ZM109.974 217.826C109.978 217.981 109.961 218.135 109.925 218.286C109.849 218.644 109.653 218.965 109.369 219.196C109.086 219.427 108.731 219.554 108.365 219.556C107.208 219.556 106.63 218.576 106.63 217.386C106.63 216.084 107.284 215.125 108.383 215.125C108.741 215.124 109.09 215.246 109.369 215.47C109.649 215.695 109.843 216.009 109.919 216.359C109.954 216.505 109.97 216.656 109.968 216.806L109.974 217.826Z" fill="white"/>
<path d="M118.832 212.129H117.562L114.792 220.28H115.879L116.727 217.718H119.62L120.488 220.28H121.612L118.832 212.129ZM116.951 216.903L117.751 214.543C117.907 214.047 118.04 213.551 118.162 213.067H118.187C118.307 213.54 118.428 214.024 118.609 214.555L119.406 216.903H116.951Z" fill="white"/>
<path d="M127.688 218.77V211.694H126.627V215.189H126.604C126.337 214.717 125.736 214.295 124.838 214.295C123.41 214.295 122.201 215.491 122.212 217.438C122.212 219.216 123.301 220.415 124.716 220.415C125.672 220.415 126.385 219.917 126.714 219.258H126.737L126.784 220.27H127.74C127.701 219.883 127.688 219.288 127.688 218.77ZM126.624 217.826C126.626 217.98 126.61 218.135 126.576 218.286C126.5 218.644 126.304 218.965 126.02 219.196C125.736 219.428 125.382 219.554 125.015 219.556C123.867 219.556 123.28 218.576 123.28 217.386C123.28 216.084 123.933 215.125 125.036 215.125C125.394 215.124 125.742 215.246 126.022 215.47C126.301 215.695 126.495 216.009 126.57 216.359C126.603 216.506 126.619 216.656 126.618 216.806L126.624 217.826Z" fill="white"/>
<path d="M133.159 214.428L132.022 217.718C131.828 218.251 131.66 218.731 131.527 219.215H131.491C131.359 218.709 131.201 218.209 131.018 217.718L129.87 214.428H128.731L130.957 220.28H131.97L134.267 214.428H133.159Z" fill="white"/>
<path d="M139.899 217.052C139.899 215.976 139.392 214.295 137.479 214.295C135.774 214.295 134.731 215.685 134.731 217.451C134.731 219.217 135.806 220.402 137.608 220.402C138.275 220.419 138.939 220.296 139.555 220.039L139.374 219.278C138.862 219.493 138.309 219.596 137.753 219.579C136.69 219.579 135.77 218.987 135.745 217.554H139.857C139.883 217.388 139.897 217.22 139.899 217.052ZM138.871 216.786H135.763C135.846 216.049 136.318 215.05 137.396 215.05C138.592 215.057 138.882 216.11 138.871 216.786Z" fill="white"/>
<path d="M143.809 214.295C143.094 214.295 142.453 214.789 142.189 215.576H142.14L142.102 214.428H141.172C141.208 214.971 141.221 215.563 141.221 216.254V220.28H142.273V217.16C142.275 216.994 142.291 216.829 142.32 216.665C142.465 215.867 142.999 215.298 143.748 215.298C143.87 215.296 143.992 215.309 144.111 215.335V214.331C144.012 214.305 143.911 214.293 143.809 214.295Z" fill="white"/>
<path d="M148.274 215.238V214.428H146.749V212.751L145.709 213.029V214.432H144.802V215.242H145.709V218.436C145.709 219.124 145.816 219.645 146.12 219.959C146.373 220.248 146.774 220.406 147.269 220.406C147.59 220.416 147.91 220.367 148.213 220.261L148.164 219.464C147.962 219.514 147.755 219.538 147.548 219.535C146.955 219.535 146.749 219.124 146.749 218.398V215.242L148.274 215.238Z" fill="white"/>
<path d="M150.005 212.117C149.917 212.115 149.829 212.13 149.748 212.163C149.666 212.195 149.591 212.244 149.529 212.306C149.467 212.369 149.418 212.443 149.385 212.525C149.353 212.607 149.337 212.694 149.34 212.782C149.341 212.912 149.38 213.039 149.453 213.147C149.526 213.254 149.629 213.338 149.749 213.387C149.87 213.436 150.002 213.449 150.129 213.423C150.257 213.397 150.374 213.335 150.466 213.243C150.557 213.151 150.62 213.034 150.646 212.907C150.671 212.779 150.659 212.647 150.61 212.527C150.56 212.406 150.477 212.303 150.369 212.231C150.262 212.158 150.135 212.118 150.005 212.117ZM149.473 214.431V220.283H150.537V214.431H149.473Z" fill="white"/>
<path d="M154.19 216.882C153.429 216.593 153.079 216.375 153.079 215.891C153.079 215.458 153.429 215.092 154.058 215.092C154.48 215.092 154.894 215.209 155.254 215.43L155.522 214.656C155.079 214.413 154.581 214.289 154.075 214.295C152.818 214.295 152.05 215.068 152.05 216.012C152.05 216.713 152.545 217.293 153.598 217.669C154.383 217.958 154.686 218.236 154.686 218.745C154.686 219.228 154.323 219.613 153.549 219.613C153.052 219.599 152.567 219.453 152.146 219.189L151.88 220.001C152.385 220.272 152.952 220.409 153.526 220.399C154.916 220.399 155.713 219.675 155.713 218.645C155.726 217.779 155.208 217.27 154.19 216.882Z" fill="white"/>
<path d="M157.628 212.117C157.54 212.115 157.452 212.13 157.371 212.163C157.289 212.196 157.215 212.245 157.153 212.307C157.09 212.369 157.041 212.443 157.009 212.525C156.976 212.607 156.96 212.694 156.963 212.782C156.963 212.913 157.003 213.04 157.076 213.148C157.149 213.256 157.252 213.34 157.373 213.389C157.493 213.439 157.626 213.452 157.754 213.426C157.881 213.4 157.999 213.337 158.091 213.245C158.183 213.153 158.246 213.036 158.272 212.908C158.297 212.78 158.285 212.648 158.235 212.527C158.186 212.406 158.102 212.303 157.994 212.23C157.886 212.157 157.758 212.118 157.628 212.117ZM157.097 214.431V220.283H158.159V214.431H157.097Z" fill="white"/>
<path d="M162.842 214.295C162.45 214.284 162.063 214.381 161.722 214.575C161.381 214.768 161.1 215.052 160.909 215.394H160.884L160.823 214.428H159.879C159.916 214.912 159.928 215.407 159.928 216.019V220.287H160.992V216.768C160.984 216.36 161.136 215.964 161.417 215.667C161.697 215.369 162.083 215.193 162.491 215.177C163.503 215.177 163.846 215.964 163.846 216.913V220.286H164.909V216.791C164.909 214.776 163.655 214.295 162.842 214.295Z" fill="white"/>
<path d="M170.756 214.428L170.707 215.31H170.683C170.429 214.827 169.873 214.298 168.857 214.298C167.514 214.298 166.221 215.423 166.221 217.405C166.221 219.026 167.261 220.26 168.712 220.26C169.619 220.26 170.247 219.826 170.575 219.281H170.598V219.933C170.598 221.409 169.801 221.978 168.718 221.978C168.114 221.985 167.52 221.826 167.001 221.517L166.733 222.328C167.205 222.642 167.98 222.813 168.682 222.813C169.419 222.813 170.241 222.642 170.811 222.11C171.378 221.601 171.645 220.781 171.645 219.437V216.039C171.645 215.325 171.668 214.853 171.692 214.431L170.756 214.428ZM170.587 217.791C170.589 217.983 170.56 218.175 170.501 218.358C170.403 218.672 170.206 218.947 169.941 219.143C169.676 219.338 169.355 219.445 169.026 219.446C167.877 219.446 167.29 218.491 167.29 217.343C167.29 215.987 168.013 215.13 169.026 215.13C169.363 215.127 169.692 215.236 169.961 215.439C170.23 215.643 170.425 215.93 170.514 216.255C170.561 216.411 170.582 216.575 170.575 216.738L170.587 217.791Z" fill="white"/>
<path d="M179.433 212.129H178.162L175.393 220.28H176.482L177.328 217.718H180.221L181.089 220.28H182.214L179.433 212.129ZM177.553 216.903L178.351 214.543C178.509 214.047 178.64 213.551 178.763 213.067H178.786C178.908 213.54 179.028 214.024 179.21 214.555L180.007 216.903H177.553Z" fill="white"/>
<path d="M187.343 214.428L187.297 215.31H187.271C187.021 214.827 186.462 214.298 185.447 214.298C184.105 214.298 182.81 215.423 182.81 217.405C182.81 219.026 183.85 220.26 185.302 220.26C186.209 220.26 186.837 219.826 187.164 219.281H187.187V219.933C187.187 221.409 186.39 221.978 185.307 221.978C184.702 221.986 184.108 221.826 183.588 221.517L183.321 222.328C183.794 222.642 184.567 222.813 185.269 222.813C186.007 222.813 186.83 222.642 187.398 222.11C187.965 221.601 188.233 220.781 188.233 219.437V216.039C188.233 215.325 188.256 214.853 188.28 214.431L187.343 214.428ZM187.175 217.791C187.177 217.983 187.149 218.175 187.091 218.358C186.993 218.672 186.796 218.947 186.531 219.142C186.266 219.338 185.946 219.444 185.616 219.446C184.466 219.446 183.88 218.491 183.88 217.343C183.88 215.987 184.604 215.13 185.616 215.13C185.824 215.13 186.03 215.173 186.222 215.255C186.413 215.336 186.586 215.456 186.731 215.606C186.875 215.756 186.988 215.933 187.062 216.128C187.137 216.322 187.171 216.53 187.164 216.738L187.175 217.791Z" fill="white"/>
<path d="M194.739 217.052C194.739 215.976 194.23 214.295 192.32 214.295C190.615 214.295 189.572 215.685 189.572 217.451C189.572 219.217 190.65 220.402 192.452 220.402C193.119 220.419 193.782 220.295 194.398 220.039L194.218 219.278C193.705 219.493 193.153 219.596 192.597 219.579C191.532 219.579 190.614 218.987 190.589 217.554H194.701C194.724 217.387 194.737 217.22 194.739 217.052ZM193.71 216.786H190.604C190.687 216.049 191.159 215.05 192.235 215.05C193.431 215.057 193.722 216.11 193.71 216.786Z" fill="white"/>
<path d="M198.974 214.295C198.582 214.285 198.195 214.382 197.854 214.575C197.513 214.769 197.232 215.052 197.04 215.394H197.017L196.956 214.428H196.013C196.048 214.912 196.062 215.407 196.062 216.019V220.287H197.124V216.768C197.122 216.6 197.146 216.433 197.198 216.273C197.288 215.963 197.476 215.69 197.733 215.494C197.989 215.298 198.302 215.19 198.625 215.184C199.638 215.184 199.979 215.971 199.979 216.92V220.293H201.044V216.798C201.044 214.776 199.785 214.295 198.974 214.295Z" fill="white"/>
<path d="M205.457 219.55C204.3 219.55 203.432 218.715 203.432 217.36C203.432 216.139 204.155 215.149 205.5 215.149C205.929 215.133 206.354 215.228 206.734 215.425L206.976 214.603C206.511 214.399 206.008 214.296 205.5 214.301C203.59 214.301 202.356 215.603 202.356 217.409C202.356 219.216 203.503 220.396 205.27 220.396C205.849 220.409 206.423 220.293 206.951 220.058L206.769 219.259C206.359 219.454 205.911 219.553 205.457 219.55Z" fill="white"/>
<path d="M212.02 214.428L210.862 217.863C210.718 218.285 210.595 218.731 210.486 219.082H210.463C210.366 218.732 210.219 218.274 210.087 217.886L208.806 214.428H207.648L209.818 219.82C209.857 219.909 209.881 220.004 209.89 220.101C209.877 220.189 209.849 220.274 209.805 220.352C209.604 220.812 209.298 221.218 208.911 221.538C208.637 221.77 208.32 221.946 207.98 222.059L208.244 222.953C208.731 222.841 209.18 222.603 209.546 222.264C210.269 221.635 210.792 220.607 211.554 218.599L213.145 214.428H212.02Z" fill="white"/>
<path d="M209.177 157.387C209.078 157.488 208.954 157.561 208.817 157.598L207.99 157.819C206.598 158.186 205.187 158.475 203.763 158.687H203.744C203.696 158.693 203.648 158.693 203.6 158.687C203.495 158.669 203.399 158.618 203.326 158.542C203.253 158.465 203.206 158.367 203.194 158.262C203.181 158.156 203.202 158.05 203.255 157.958C203.307 157.866 203.388 157.793 203.485 157.751H203.503C204.161 157.475 204.848 157.212 205.578 156.959C205.749 156.899 205.903 156.799 206.026 156.668C206.149 156.536 206.239 156.376 206.286 156.202C206.334 156.027 206.339 155.844 206.3 155.668C206.261 155.492 206.18 155.327 206.063 155.19C205.497 154.52 205.003 153.888 204.552 153.273L204.543 153.259C204.49 153.181 204.46 153.09 204.458 152.996C204.456 152.902 204.482 152.81 204.531 152.73C204.581 152.651 204.653 152.587 204.738 152.548C204.824 152.509 204.919 152.495 205.011 152.509C205.086 152.521 205.158 152.55 205.22 152.593L205.278 152.639C206.425 153.59 207.523 154.599 208.565 155.664L209.164 156.282C209.307 156.429 209.388 156.626 209.39 156.832C209.392 157.037 209.316 157.236 209.177 157.387Z" fill="white"/>
<path d="M33.2971 164.694L21.6968 194.78H21.5275L9.64656 164.694H1.52197L17.4934 204.258H25.2318L41.2612 164.694H33.2971Z" fill="white"/>
<path d="M46.7446 164.694V203.92H54.0881V164.694H46.7446Z" fill="white"/>
<path d="M90.3443 187.193C89.5584 185.831 88.26 184.644 86.4491 183.634C84.6382 182.623 82.1821 181.707 79.081 180.885C76.4658 180.137 74.4857 179.52 73.1405 179.034C71.7953 178.548 70.8894 178.034 70.4227 177.492C69.9559 176.952 69.7221 176.271 69.7211 175.448C69.7211 173.809 70.4217 172.585 71.8228 171.777C73.2239 170.969 75.3073 170.568 78.0728 170.574C79.4583 170.576 80.8425 170.66 82.2183 170.824C83.6367 170.993 84.9819 171.171 86.2538 171.358L89.5589 171.808L90.6249 166.258L88.2701 165.643C86.5115 165.157 84.7241 164.782 82.9184 164.52C81.1831 164.265 79.4319 164.134 77.6779 164.128C74.8025 164.128 72.1965 164.52 69.86 165.304C67.5235 166.088 65.675 167.312 64.3144 168.975C62.947 170.639 62.2648 172.815 62.2677 175.505C62.2677 177.636 62.6698 179.371 63.474 180.712C64.2782 182.052 65.6041 183.192 67.4517 184.131C69.2983 185.065 71.7924 185.999 74.9341 186.933C77.4711 187.682 79.3761 188.354 80.6489 188.949C81.9218 189.544 82.7713 190.152 83.1975 190.773C83.6329 191.407 83.8585 192.161 83.8426 192.93C83.8426 194.575 83.1792 195.817 81.8523 196.656C80.5255 197.495 78.5362 197.915 75.8844 197.917C74.464 197.917 72.8768 197.833 71.1227 197.665C69.3687 197.498 67.7993 197.282 66.4146 197.02L62.3805 196.349L61.2031 201.951L64.5646 202.906C66.3174 203.377 68.0949 203.75 69.8889 204.025C71.8916 204.331 73.9149 204.481 75.9408 204.474C78.8558 204.474 81.4898 204.035 83.8426 203.157C86.1955 202.28 88.0638 200.935 89.4475 199.123C90.8294 197.31 91.5203 195.003 91.5203 192.202C91.5212 190.225 91.1293 188.556 90.3443 187.193Z" fill="white"/>
<path d="M98.8074 164.694V203.92H106.147V164.694H98.8074Z" fill="white"/>
<path d="M151.09 173.772C149.496 170.798 147.088 168.339 144.147 166.684C141.158 164.986 137.627 164.137 133.553 164.136C129.633 164.136 126.168 164.976 123.159 166.657C120.194 168.297 117.755 170.746 116.127 173.718C114.444 176.744 113.603 180.256 113.604 184.254C113.604 188.29 114.424 191.82 116.063 194.845C117.656 197.82 120.065 200.279 123.006 201.932C125.995 203.632 129.507 204.482 133.54 204.481C137.501 204.481 140.985 203.631 143.994 201.932C146.956 200.276 149.393 197.82 151.026 194.845C152.707 191.82 153.547 188.308 153.547 184.311C153.547 180.313 152.728 176.8 151.09 173.772ZM144.478 191.592C143.431 193.61 141.974 195.133 140.106 196.16C138.238 197.187 136.052 197.7 133.549 197.699C131.042 197.699 128.857 197.186 126.994 196.16C125.131 195.134 123.684 193.62 122.655 191.619C121.628 189.621 121.114 187.184 121.114 184.308C121.114 181.395 121.637 178.947 122.682 176.966C123.657 175.06 125.18 173.489 127.055 172.456C128.921 171.427 131.088 170.913 133.553 170.914C136.095 170.914 138.3 171.428 140.166 172.456C142.036 173.485 143.549 175.058 144.506 176.966C145.535 178.947 146.048 181.376 146.046 184.251C146.044 187.127 145.522 189.574 144.478 191.592Z" fill="white"/>
<path d="M178.215 164.694H169.695L154.453 203.92H162.076L164.996 196.131L167.411 189.687L173.842 172.541H174.01L180.288 189.688L182.647 196.132L185.499 203.921H193.569L178.215 164.694ZM163.923 189.687V196.131H183.873V189.687H163.923Z" fill="#D02127"/>
<path d="M204.919 197.477H194.431L196.958 203.921H209.397C207.771 201.869 206.275 199.717 204.919 197.477ZM233.558 178.977C233.471 178.77 233.38 178.569 233.286 178.371C232.129 175.926 230.388 174.109 228.063 172.92C225.738 171.731 222.823 171.136 219.316 171.136H213.181C216.17 171.136 218.655 171.613 220.637 172.567C222.574 173.477 224.144 175.018 225.089 176.938C226.079 178.899 226.574 181.375 226.573 184.365C226.573 187.162 226.06 189.533 225.033 191.479C224.031 193.398 222.455 194.956 220.524 195.935C218.543 196.963 216.095 197.477 213.181 197.477H212.052C213.528 199.655 215.154 201.726 216.918 203.677C219.602 203.34 222.018 202.647 224.166 201.597C227.34 200.044 229.786 197.803 231.506 194.872C233.225 191.942 234.084 188.439 234.084 184.365C234.097 182.556 233.919 180.75 233.554 178.977H233.558Z" fill="#D02127"/>
<mask id="mask0_1488_78158" style="mask-type:luminance" maskUnits="userSpaceOnUse" x="200" y="164" width="34" height="15">
<path d="M233.554 178.977C233.467 178.77 233.376 178.569 233.282 178.371C232.124 175.926 230.383 174.109 228.059 172.92C225.734 171.731 222.818 171.136 219.312 171.136H200.942L200.401 164.694H213.412C217.558 164.694 221.182 165.45 224.283 166.963C227.305 168.401 229.825 170.714 231.515 173.602C232.481 175.272 233.169 177.087 233.554 178.977Z" fill="white"/>
</mask>
<g mask="url(#mask0_1488_78158)">
<path d="M200.721 164.694H200.398V178.977H200.721V164.694Z" fill="#D02127"/>
<path d="M201.042 164.694H200.719V178.977H201.042V164.694Z" fill="#CF2127"/>
<path d="M201.365 164.694H201.042V178.977H201.365V164.694Z" fill="#CE2127"/>
<path d="M201.686 164.694H201.363V178.977H201.686V164.694Z" fill="#CD2127"/>
<path d="M202.008 164.694H201.686V178.977H202.008V164.694Z" fill="#CC2027"/>
<path d="M202.331 164.694H202.008V178.977H202.331V164.694Z" fill="#CB2027"/>
<path d="M202.652 164.694H202.33V178.977H202.652V164.694Z" fill="#CA2027"/>
<path d="M202.974 164.694H202.652V178.977H202.974V164.694Z" fill="#C92027"/>
<path d="M203.296 164.694H202.973V178.977H203.296V164.694Z" fill="#C82027"/>
<path d="M203.618 164.694H203.296V178.977H203.618V164.694Z" fill="#C72027"/>
<path d="M203.939 164.694H203.617V178.977H203.939V164.694Z" fill="#C62027"/>
<path d="M204.262 164.694H203.939V178.977H204.262V164.694Z" fill="#C52027"/>
<path d="M204.583 164.694H204.26V178.977H204.583V164.694Z" fill="#C41F27"/>
<path d="M204.905 164.694H204.583V178.977H204.905V164.694Z" fill="#C31F27"/>
<path d="M205.227 164.694H204.904V178.977H205.227V164.694Z" fill="#C21F27"/>
<path d="M205.549 164.694H205.227V178.977H205.549V164.694Z" fill="#C11F27"/>
<path d="M205.87 164.694H205.548V178.977H205.87V164.694Z" fill="#C01F27"/>
<path d="M206.193 164.694H205.87V178.977H206.193V164.694Z" fill="#BF1F27"/>
<path d="M206.515 164.694H206.193V178.977H206.515V164.694Z" fill="#BE1F27"/>
<path d="M206.837 164.694H206.514V178.977H206.837V164.694Z" fill="#BD1F27"/>
<path d="M207.159 164.694H206.837V178.977H207.159V164.694Z" fill="#BC1E27"/>
<path d="M207.48 164.694H207.158V178.977H207.48V164.694Z" fill="#BB1E27"/>
<path d="M207.803 164.694H207.48V178.977H207.803V164.694Z" fill="#BA1E27"/>
<path d="M208.124 164.694H207.801V178.977H208.124V164.694Z" fill="#B91E27"/>
<path d="M208.446 164.694H208.124V178.977H208.446V164.694Z" fill="#B81E27"/>
<path d="M208.768 164.694H208.445V178.977H208.768V164.694Z" fill="#B71E27"/>
<path d="M209.09 164.694H208.767V178.977H209.09V164.694Z" fill="#B61E26"/>
<path d="M209.411 164.694H209.089V178.977H209.411V164.694Z" fill="#B51E26"/>
<path d="M209.734 164.694H209.411V178.977H209.734V164.694Z" fill="#B41D26"/>
<path d="M210.056 164.694H209.734V178.977H210.056V164.694Z" fill="#B31D26"/>
<path d="M210.377 164.694H210.055V178.977H210.377V164.694Z" fill="#B21D26"/>
<path d="M210.7 164.694H210.377V178.977H210.7V164.694Z" fill="#B11D26"/>
<path d="M211.021 164.694H210.698V178.977H211.021V164.694Z" fill="#B01D26"/>
<path d="M211.344 164.694H211.021V178.977H211.344V164.694Z" fill="#AF1D26"/>
<path d="M211.665 164.694H211.342V178.977H211.665V164.694Z" fill="#AE1D26"/>
<path d="M211.987 164.694H211.665V178.977H211.987V164.694Z" fill="#AD1D26"/>
<path d="M212.308 164.694H211.986V178.977H212.308V164.694Z" fill="#AC1C26"/>
<path d="M212.631 164.694H212.308V178.977H212.631V164.694Z" fill="#AB1C26"/>
<path d="M212.952 164.694H212.629V178.977H212.952V164.694Z" fill="#AA1C26"/>
<path d="M213.275 164.694H212.952V178.977H213.275V164.694Z" fill="#A91C26"/>
<path d="M213.597 164.694H213.274V178.977H213.597V164.694Z" fill="#A81C26"/>
<path d="M213.918 164.694H213.596V178.977H213.918V164.694Z" fill="#A71C26"/>
<path d="M214.241 164.694H213.918V178.977H214.241V164.694Z" fill="#A61C26"/>
<path d="M214.562 164.694H214.24V178.977H214.562V164.694Z" fill="#A51C26"/>
<path d="M214.884 164.694H214.562V178.977H214.884V164.694Z" fill="#A41B26"/>
<path d="M215.206 164.694H214.883V178.977H215.206V164.694Z" fill="#A31B26"/>
<path d="M215.528 164.694H215.206V178.977H215.528V164.694Z" fill="#A21B26"/>
<path d="M215.849 164.694H215.527V178.977H215.849V164.694Z" fill="#A11B26"/>
<path d="M216.172 164.694H215.849V178.977H216.172V164.694Z" fill="#A01B26"/>
<path d="M216.493 164.694H216.17V178.977H216.493V164.694Z" fill="#9F1B26"/>
<path d="M216.815 164.694H216.493V178.977H216.815V164.694Z" fill="#9E1B26"/>
<path d="M217.138 164.694H216.815V178.977H217.138V164.694Z" fill="#9D1B26"/>
<path d="M217.459 164.694H217.136V178.977H217.459V164.694Z" fill="#9B1A26"/>
<path d="M217.782 164.694H217.459V178.977H217.782V164.694Z" fill="#9A1A26"/>
<path d="M218.103 164.694H217.78V178.977H218.103V164.694Z" fill="#991A26"/>
<path d="M218.425 164.694H218.103V178.977H218.425V164.694Z" fill="#981A26"/>
<path d="M218.746 164.694H218.424V178.977H218.746V164.694Z" fill="#971A26"/>
<path d="M219.069 164.694H218.747V178.977H219.069V164.694Z" fill="#961A26"/>
<path d="M219.39 164.694H219.067V178.977H219.39V164.694Z" fill="#951A26"/>
<path d="M219.713 164.694H219.39V178.977H219.713V164.694Z" fill="#941926"/>
<path d="M220.033 164.694H219.711V178.977H220.033V164.694Z" fill="#931926"/>
<path d="M220.356 164.694H220.034V178.977H220.356V164.694Z" fill="#921926"/>
<path d="M220.679 164.694H220.356V178.977H220.679V164.694Z" fill="#911926"/>
<path d="M221 164.694H220.677V178.977H221V164.694Z" fill="#901926"/>
<path d="M221.322 164.694H221V178.977H221.322V164.694Z" fill="#8F1926"/>
<path d="M221.644 164.694H221.321V178.977H221.644V164.694Z" fill="#8E1926"/>
<path d="M221.966 164.694H221.644V178.977H221.966V164.694Z" fill="#8D1926"/>
<path d="M222.287 164.694H221.965V178.977H222.287V164.694Z" fill="#8C1826"/>
<path d="M222.61 164.694H222.287V178.977H222.61V164.694Z" fill="#8B1826"/>
<path d="M222.931 164.694H222.608V178.977H222.931V164.694Z" fill="#8A1826"/>
<path d="M223.254 164.694H222.931V178.977H223.254V164.694Z" fill="#891826"/>
<path d="M223.575 164.694H223.252V178.977H223.575V164.694Z" fill="#881826"/>
<path d="M223.897 164.694H223.574V178.977H223.897V164.694Z" fill="#871826"/>
<path d="M224.22 164.694H223.897V178.977H224.22V164.694Z" fill="#861826"/>
<path d="M224.541 164.694H224.218V178.977H224.541V164.694Z" fill="#851826"/>
<path d="M224.863 164.694H224.541V178.977H224.863V164.694Z" fill="#841726"/>
<path d="M225.185 164.694H224.862V178.977H225.185V164.694Z" fill="#831726"/>
<path d="M225.507 164.694H225.184V178.977H225.507V164.694Z" fill="#821725"/>
<path d="M225.828 164.694H225.506V178.977H225.828V164.694Z" fill="#811725"/>
<path d="M226.151 164.694H225.828V178.977H226.151V164.694Z" fill="#801725"/>
<path d="M226.472 164.694H226.149V178.977H226.472V164.694Z" fill="#7F1725"/>
<path d="M226.794 164.694H226.472V178.977H226.794V164.694Z" fill="#7E1725"/>
<path d="M227.116 164.694H226.793V178.977H227.116V164.694Z" fill="#7D1725"/>
<path d="M227.438 164.694H227.115V178.977H227.438V164.694Z" fill="#7C1625"/>
<path d="M227.761 164.694H227.438V178.977H227.761V164.694Z" fill="#7B1625"/>
<path d="M228.082 164.694H227.759V178.977H228.082V164.694Z" fill="#7A1625"/>
<path d="M228.404 164.694H228.082V178.977H228.404V164.694Z" fill="#791625"/>
<path d="M228.725 164.694H228.403V178.977H228.725V164.694Z" fill="#781625"/>
<path d="M229.048 164.694H228.725V178.977H229.048V164.694Z" fill="#771625"/>
<path d="M229.369 164.694H229.046V178.977H229.369V164.694Z" fill="#761625"/>
<path d="M229.692 164.694H229.369V178.977H229.692V164.694Z" fill="#751625"/>
<path d="M230.013 164.694H229.69V178.977H230.013V164.694Z" fill="#741525"/>
<path d="M230.335 164.694H230.013V178.977H230.335V164.694Z" fill="#731525"/>
<path d="M230.656 164.694H230.334V178.977H230.656V164.694Z" fill="#721525"/>
<path d="M230.979 164.694H230.656V178.977H230.979V164.694Z" fill="#711525"/>
<path d="M231.301 164.694H230.979V178.977H231.301V164.694Z" fill="#701525"/>
<path d="M231.623 164.694H231.3V178.977H231.623V164.694Z" fill="#6F1525"/>
<path d="M231.945 164.694H231.623V178.977H231.945V164.694Z" fill="#6E1525"/>
<path d="M232.266 164.694H231.944V178.977H232.266V164.694Z" fill="#6D1525"/>
<path d="M232.589 164.694H232.266V178.977H232.589V164.694Z" fill="#6C1425"/>
<path d="M232.91 164.694H232.587V178.977H232.91V164.694Z" fill="#6B1425"/>
<path d="M233.232 164.694H232.91V178.977H233.232V164.694Z" fill="#6A1425"/>
<path d="M233.554 164.694H233.231V178.977H233.554V164.694Z" fill="#691425"/>
</g>
<path d="M225.64 209.28C226.18 208.982 226.706 209.7 226.251 210.116C225.895 210.437 225.496 210.706 225.065 210.915C222.853 212.014 217.646 212.642 210.434 203.918C208.77 201.874 207.244 199.721 205.866 197.474C203.891 194.261 202.089 190.944 200.467 187.539C191.881 169.748 194.826 157.725 200.403 155.252C201.407 154.808 202.554 154.782 203.801 155.127C203.913 155.161 204.01 155.23 204.077 155.326C204.145 155.421 204.178 155.536 204.173 155.652C204.167 155.769 204.123 155.88 204.047 155.968C203.971 156.057 203.867 156.117 203.753 156.14C203.449 156.192 203.153 156.28 202.869 156.402C200.906 157.269 199.615 160.307 199.388 164.687C199.296 166.84 199.412 168.998 199.735 171.129C200.512 176.481 202.506 182.808 206.099 189.311C207.835 192.445 209.498 195.15 211.071 197.47C212.546 199.676 214.164 201.783 215.915 203.778C218.961 207.197 221.488 208.936 223.341 209.5C224.003 209.704 225.017 209.61 225.607 209.29L225.64 209.28Z" fill="white"/>
</svg>
