<svg width="160" height="42" viewBox="0 0 160 42" fill="none" xmlns="http://www.w3.org/2000/svg">
<path d="M37.921 13.7726C31.6027 21.1846 25.4228 28.4294 19.2408 35.6763C18.2703 36.814 17.3242 37.9062 16.3418 39.0956C15.0552 40.6696 13.8595 41.0199 12.1792 39.9081C11.4149 39.4019 10.5779 39.0061 9.45215 38.3817L38.121 4.82373C47.9943 12.4923 48.6362 31.1152 38.358 40.2347C38.9678 36.7168 36.7938 33.8387 38.5049 30.4901C41.2774 25.0625 40.9047 18.3233 37.921 13.7726Z" fill="#D02127"/>
<path d="M8.26932 28.4463C14.5877 21.0343 20.7682 13.7888 26.9495 6.54259C27.9201 5.40493 28.8717 4.30922 29.8493 3.12331C31.2422 1.471 32.3316 1.199 34.0119 2.31079C34.7761 2.81704 35.6131 3.21281 36.7389 3.83724C27.0376 15.1922 17.5503 26.2968 8.07004 37.3952C-1.80393 29.7266 -2.44583 11.1037 7.833 1.98425C7.22326 5.50213 9.3965 8.3802 7.68616 11.7289C4.91297 17.1564 5.28636 23.8949 8.26932 28.4463Z" fill="white"/>
<path d="M66.0353 32.4955V32.0977H64.0571V35.7708H64.5312V34.1087H65.9199V33.7157H64.5305V32.4955H66.0353Z" fill="white"/>
<path d="M68.7135 35.0503V33.1323H68.2338V34.7511C68.234 34.8348 68.2193 34.9179 68.1904 34.9965C68.1399 35.1229 68.0533 35.2316 67.9414 35.3091C67.8295 35.3866 67.6972 35.4293 67.5611 35.4321C67.1248 35.4321 66.9724 35.0944 66.9724 34.593V33.1323H66.4927V34.6742C66.4927 35.6006 66.9891 35.83 67.4017 35.83C67.5773 35.8328 67.7506 35.789 67.9038 35.703C68.057 35.617 68.1846 35.492 68.2736 35.3405H68.2841L68.3114 35.7706H68.7372C68.7177 35.5629 68.7135 35.323 68.7135 35.0503Z" fill="white"/>
<path d="M69.5098 31.9014V35.7703H69.9894V31.9014H69.5098Z" fill="white"/>
<path d="M70.7979 31.9014V35.7703H71.2775V31.9014H70.7979Z" fill="white"/>
<path d="M71.8501 34.1187V34.4683H73.1961V34.1187H71.8501Z" fill="white"/>
<path d="M74.8746 33.6882C74.3684 33.4917 74.1446 33.3225 74.1446 32.9799C74.1446 32.7288 74.3362 32.4289 74.8369 32.4289C75.0809 32.4274 75.3214 32.4875 75.5361 32.6037L75.6676 32.2163C75.4164 32.089 75.1372 32.0272 74.8558 32.0366C74.1418 32.0366 73.667 32.4617 73.667 33.0344C73.667 33.5518 74.0383 33.863 74.6376 34.0749C75.1334 34.2658 75.3298 34.4615 75.3298 34.8056C75.3298 35.1762 75.0459 35.4349 74.5607 35.4349C74.2607 35.4321 73.967 35.3493 73.7097 35.195L73.5908 35.5929C73.7866 35.7237 74.1733 35.8272 74.5278 35.8272C75.3949 35.8272 75.8144 35.3377 75.8144 34.7699C75.813 34.2273 75.4998 33.928 74.8746 33.6882Z" fill="white"/>
<path d="M78.6152 34.3138C78.6152 33.8293 78.3865 33.0713 77.525 33.0713C76.7559 33.0713 76.2881 33.7006 76.2881 34.4935C76.2881 35.2865 76.7734 35.8221 77.5852 35.8221C77.8862 35.8299 78.1854 35.7741 78.4634 35.6585L78.3809 35.3151C78.1505 35.414 77.9015 35.4617 77.6509 35.455C77.1712 35.455 76.7573 35.1879 76.7468 34.539H78.5998C78.6092 34.4643 78.6144 34.3891 78.6152 34.3138ZM78.1523 34.1936H76.7538C76.7922 33.8621 77.0048 33.4146 77.4894 33.4146C78.0271 33.4153 78.1572 33.8901 78.1523 34.1943V34.1936Z" fill="white"/>
<path d="M80.3773 33.0718C80.0563 33.0718 79.7675 33.2948 79.6472 33.6494H79.6263L79.6095 33.1319H79.1899C79.206 33.3773 79.2109 33.6438 79.2109 33.9549V35.7729H79.685V34.3668C79.6864 34.2919 79.6939 34.2173 79.7074 34.1437C79.7724 33.7836 80.0122 33.5277 80.3507 33.5277C80.4054 33.5271 80.46 33.5324 80.5136 33.5438V33.0914C80.4692 33.079 80.4234 33.0724 80.3773 33.0718Z" fill="white"/>
<path d="M82.7976 33.1323L82.2857 34.6147C82.1983 34.8546 82.1221 35.0727 82.0627 35.2902H82.0459C81.9878 35.0615 81.9178 34.8361 81.8361 34.6147L81.318 33.1323H80.8062L81.8089 35.7699H82.2662L83.3024 33.1323H82.7976Z" fill="white"/>
<path d="M83.9932 32.0914C83.9536 32.0904 83.9142 32.0975 83.8774 32.1123C83.8406 32.127 83.8072 32.1491 83.7792 32.1772C83.7512 32.2052 83.7292 32.2387 83.7146 32.2755C83.6999 32.3123 83.6929 32.3518 83.694 32.3914C83.6945 32.4499 83.7123 32.507 83.7452 32.5555C83.7781 32.6039 83.8246 32.6416 83.8788 32.6637C83.9331 32.6858 83.9926 32.6915 84.05 32.6798C84.1074 32.6682 84.1601 32.6399 84.2015 32.5985C84.2429 32.557 84.271 32.5042 84.2825 32.4468C84.294 32.3894 84.2883 32.3298 84.266 32.2757C84.2438 32.2215 84.206 32.1751 84.1575 32.1423C84.1089 32.1095 84.0518 32.0918 83.9932 32.0914ZM83.7513 33.1326V35.7701H84.231V33.1326H83.7513Z" fill="white"/>
<path d="M86.2389 35.4433C85.7158 35.4433 85.3229 35.0671 85.3229 34.4567C85.3229 33.9064 85.6508 33.4595 86.255 33.4595C86.4491 33.4516 86.6419 33.4945 86.8144 33.584L86.9241 33.2141C86.7149 33.1202 86.4878 33.0725 86.2585 33.0743C85.3977 33.0743 84.8418 33.663 84.8418 34.4727C84.8418 35.2825 85.3592 35.8188 86.155 35.8188C86.4156 35.8245 86.6742 35.7725 86.9122 35.6663L86.8311 35.3062C86.6466 35.396 86.4441 35.4429 86.2389 35.4433Z" fill="white"/>
<path d="M89.5756 34.3138C89.5756 33.8293 89.347 33.0713 88.4855 33.0713C87.7163 33.0713 87.2485 33.7006 87.2485 34.4935C87.2485 35.2865 87.7338 35.8221 88.5463 35.8221C88.8469 35.8298 89.1456 35.7741 89.4232 35.6585L89.3414 35.3151C89.111 35.414 88.8619 35.4617 88.6114 35.455C88.1317 35.455 87.7177 35.1879 87.7065 34.539H89.5588C89.5693 34.4644 89.5749 34.3892 89.5756 34.3138ZM89.112 34.1936H87.7135C87.7527 33.8621 87.9646 33.4146 88.4498 33.4146C88.9875 33.4153 89.1176 33.8901 89.112 34.1943V34.1936Z" fill="white"/>
<path d="M92.9019 33.8019V33.7914C93.2899 33.6516 93.5235 33.3383 93.5235 32.9845C93.529 32.8597 93.504 32.7356 93.4508 32.6226C93.3976 32.5097 93.3176 32.4114 93.2179 32.3363C92.99 32.151 92.6844 32.0685 92.2103 32.0685C91.9195 32.0664 91.6292 32.0921 91.3433 32.1454V35.7591C91.5875 35.7894 91.8335 35.8037 92.0796 35.8017C92.6788 35.8017 93.0935 35.6933 93.3487 35.4591C93.4489 35.3649 93.5284 35.2508 93.582 35.1242C93.6356 34.9975 93.6621 34.861 93.6598 34.7235C93.6598 34.1781 93.2508 33.89 92.9019 33.8019ZM91.818 32.467C91.9563 32.4413 92.097 32.4303 92.2376 32.4342C92.7173 32.4342 93.0438 32.6034 93.0438 33.0341C93.0438 33.3879 92.7501 33.6495 92.2481 33.6495H91.818V32.467ZM92.2152 35.4318C92.0825 35.4349 91.9497 35.4277 91.818 35.4101V34.0117H92.2117C92.7292 34.0117 93.1599 34.2214 93.1599 34.7207C93.1585 35.2521 92.7054 35.4325 92.2152 35.4325V35.4318Z" fill="white"/>
<path d="M95.4488 33.0718C95.1271 33.0718 94.8376 33.2948 94.718 33.6494H94.6957L94.6803 33.1319H94.2607C94.2768 33.3773 94.2817 33.6438 94.2817 33.9549V35.7729H94.7565V34.3668C94.7573 34.2919 94.7646 34.2173 94.7782 34.1437C94.8439 33.7836 95.0837 33.5277 95.4215 33.5277C95.4762 33.527 95.5309 33.5324 95.5844 33.5438V33.0914C95.5402 33.079 95.4946 33.0724 95.4488 33.0718Z" fill="white"/>
<path d="M97.8915 35.1375V34.1509C97.8915 33.6229 97.6957 33.0719 96.8888 33.0719C96.5835 33.0676 96.2831 33.149 96.0217 33.3069L96.1315 33.6229C96.3376 33.4952 96.575 33.4272 96.8175 33.4265C97.3573 33.4265 97.4174 33.8187 97.4174 34.0369V34.0907C96.3979 34.0858 95.8315 34.4341 95.8315 35.0697C95.8315 35.4508 96.1042 35.827 96.6378 35.827C96.7938 35.8303 96.9483 35.7965 97.0886 35.7283C97.2289 35.6601 97.351 35.5594 97.4447 35.4347H97.4608L97.4992 35.7668H97.9349C97.9029 35.5586 97.8884 35.3481 97.8915 35.1375ZM97.4279 34.8809C97.4269 34.933 97.4179 34.9846 97.4013 35.034C97.3556 35.1657 97.2692 35.2795 97.1546 35.359C97.0399 35.4384 96.903 35.4794 96.7636 35.4759C96.5182 35.4759 96.3112 35.3277 96.3112 35.0172C96.3112 34.5054 96.9049 34.4131 97.43 34.4236L97.4279 34.8809Z" fill="white"/>
<path d="M99.9806 33.0721C99.8039 33.0676 99.6293 33.1114 99.4757 33.1988C99.3221 33.2862 99.1951 33.4137 99.1086 33.5678H99.0981L99.0709 33.1322H98.645C98.6618 33.3504 98.6667 33.5734 98.6667 33.8461V35.7698H99.1464V34.1839C99.145 34.1082 99.1561 34.0329 99.1792 33.9608C99.2203 33.8213 99.3049 33.6986 99.4206 33.6106C99.5363 33.5226 99.6772 33.4738 99.8225 33.4713C100.275 33.4713 100.432 33.8259 100.432 34.2503V35.7712H100.912V34.1958C100.912 33.2903 100.346 33.0721 99.9806 33.0721Z" fill="white"/>
<path d="M103.972 35.0892V31.9014H103.492V33.4754H103.481C103.361 33.2656 103.088 33.0726 102.685 33.0726C102.042 33.0726 101.496 33.6117 101.502 34.4893C101.502 35.2906 101.992 35.8304 102.631 35.8304C103.061 35.8304 103.382 35.6066 103.53 35.3123H103.541L103.562 35.7703H103.993C103.977 35.5906 103.972 35.3234 103.972 35.0892ZM103.492 34.6641C103.494 34.7346 103.486 34.8052 103.47 34.8738C103.436 35.0346 103.348 35.1789 103.221 35.2831C103.094 35.3872 102.935 35.4448 102.771 35.4465C102.252 35.4465 101.991 35.0046 101.991 34.4676C101.991 33.8844 102.286 33.4488 102.781 33.4488C102.943 33.4485 103.101 33.5039 103.227 33.6057C103.353 33.7076 103.44 33.8497 103.474 34.0082C103.489 34.0742 103.496 34.1418 103.495 34.2096L103.492 34.6641Z" fill="white"/>
<path d="M107.484 32.0967H106.912L105.664 35.7698H106.153L106.534 34.6146H107.837L108.23 35.7698H108.736L107.484 32.0967ZM106.634 34.244L106.994 33.1812C107.064 32.9574 107.125 32.7344 107.179 32.5155H107.19C107.245 32.7253 107.299 32.947 107.38 33.1868L107.74 34.244H106.634Z" fill="white"/>
<path d="M111.474 35.0892V31.9014H110.995V33.4754H110.984C110.865 33.2656 110.592 33.0726 110.189 33.0726C109.545 33.0726 109 33.6117 109.005 34.4893C109.005 35.2906 109.495 35.8304 110.134 35.8304C110.565 35.8304 110.886 35.6066 111.034 35.3123H111.044L111.066 35.7703H111.497C111.481 35.5906 111.474 35.3234 111.474 35.0892ZM110.995 34.6641C110.996 34.7346 110.989 34.8051 110.973 34.8738C110.939 35.0354 110.851 35.1803 110.723 35.2845C110.595 35.3887 110.435 35.4459 110.27 35.4465C109.752 35.4465 109.491 35.0046 109.491 34.4676C109.491 33.8844 109.785 33.4488 110.282 33.4488C110.444 33.4484 110.601 33.5037 110.727 33.6056C110.853 33.7075 110.94 33.8497 110.973 34.0082C110.988 34.0742 110.995 34.1418 110.995 34.2096V34.6641Z" fill="white"/>
<path d="M113.94 33.1323L113.427 34.6147C113.341 34.8546 113.264 35.0727 113.204 35.2902H113.189C113.13 35.0616 113.06 34.8362 112.979 34.6147L112.462 33.1323H111.949L112.952 35.7699H113.41L114.446 33.1323H113.94Z" fill="white"/>
<path d="M116.977 34.3138C116.977 33.8293 116.749 33.0713 115.887 33.0713C115.118 33.0713 114.65 33.7006 114.65 34.4935C114.65 35.2865 115.136 35.8221 115.947 35.8221C116.248 35.8299 116.547 35.7742 116.825 35.6585L116.743 35.3151C116.513 35.4139 116.263 35.4616 116.013 35.455C115.533 35.455 115.119 35.1879 115.108 34.539H116.961C116.971 34.4644 116.977 34.3892 116.977 34.3138ZM116.514 34.1936H115.115C115.154 33.8621 115.366 33.4146 115.852 33.4146C116.389 33.4153 116.519 33.8901 116.514 34.1943V34.1936Z" fill="white"/>
<path d="M118.739 33.0718C118.417 33.0718 118.128 33.2948 118.009 33.6494H117.986L117.97 33.1319H117.551C117.567 33.3773 117.572 33.6438 117.572 33.9549V35.7729H118.047V34.3668C118.047 34.2919 118.055 34.2173 118.068 34.1437C118.134 33.7836 118.374 33.5277 118.712 33.5277C118.766 33.5271 118.821 33.5325 118.875 33.5438V33.0914C118.831 33.079 118.785 33.0725 118.739 33.0718Z" fill="white"/>
<path d="M120.75 33.4973V33.1323H120.064V32.375L119.595 32.5002V33.1295H119.186V33.4945H119.595V34.9335C119.595 35.244 119.643 35.4782 119.78 35.6202C119.894 35.7509 120.075 35.8216 120.298 35.8216C120.442 35.826 120.586 35.804 120.723 35.7565L120.701 35.3971C120.61 35.42 120.516 35.4308 120.422 35.4293C120.154 35.4293 120.061 35.244 120.061 34.9167V33.4945L120.75 33.4973Z" fill="white"/>
<path d="M121.532 32.0909C121.492 32.0898 121.452 32.0968 121.415 32.1114C121.378 32.1261 121.345 32.1481 121.317 32.1762C121.289 32.2043 121.267 32.2378 121.252 32.2748C121.237 32.3117 121.23 32.3512 121.232 32.3909C121.232 32.4495 121.25 32.5065 121.283 32.555C121.316 32.6034 121.362 32.6411 121.416 32.6632C121.47 32.6853 121.53 32.691 121.587 32.6794C121.645 32.6679 121.697 32.6396 121.739 32.5982C121.78 32.5569 121.809 32.5042 121.82 32.4468C121.832 32.3894 121.826 32.3299 121.804 32.2757C121.782 32.2215 121.744 32.1751 121.696 32.1422C121.647 32.1093 121.59 32.0915 121.532 32.0909ZM121.292 33.1321V35.7696H121.771V33.1321H121.292Z" fill="white"/>
<path d="M123.417 34.2386C123.074 34.1078 122.916 34.0093 122.916 33.7918C122.916 33.5953 123.074 33.4317 123.358 33.4317C123.548 33.4317 123.734 33.4845 123.896 33.5841L124.017 33.2345C123.819 33.125 123.595 33.0686 123.368 33.0709C122.801 33.0709 122.459 33.4205 122.459 33.8449C122.459 34.1603 122.682 34.4225 123.159 34.5917C123.513 34.7225 123.648 34.8469 123.648 35.0763C123.648 35.2945 123.485 35.4693 123.136 35.4693C122.913 35.4625 122.696 35.3966 122.507 35.2784L122.387 35.6434C122.614 35.7659 122.87 35.8278 123.128 35.8231C123.757 35.8231 124.114 35.4958 124.114 35.0329C124.109 34.6421 123.875 34.4134 123.417 34.2386Z" fill="white"/>
<path d="M124.967 32.0914C124.927 32.0904 124.888 32.0974 124.851 32.1121C124.814 32.1268 124.781 32.1489 124.753 32.1769C124.725 32.205 124.702 32.2385 124.688 32.2754C124.673 32.3122 124.666 32.3517 124.667 32.3914C124.668 32.4501 124.685 32.5074 124.718 32.5561C124.751 32.6047 124.798 32.6426 124.852 32.6649C124.906 32.6872 124.966 32.6929 125.024 32.6813C125.081 32.6698 125.134 32.6414 125.176 32.5999C125.217 32.5584 125.245 32.5055 125.257 32.4479C125.269 32.3903 125.263 32.3306 125.241 32.2763C125.218 32.2219 125.18 32.1754 125.132 32.1425C125.083 32.1096 125.026 32.0918 124.967 32.0914ZM124.727 33.1326V35.7701H125.207V33.1326H124.727Z" fill="white"/>
<path d="M127.314 33.0721C127.137 33.0675 126.963 33.1112 126.809 33.1986C126.656 33.286 126.529 33.4137 126.443 33.5679H126.432L126.404 33.1322H125.979C125.996 33.3504 126.001 33.5735 126.001 33.8462V35.7698H126.48V34.1839C126.479 34.1082 126.49 34.0328 126.513 33.9608C126.554 33.8213 126.638 33.6985 126.754 33.6104C126.87 33.5223 127.01 33.4736 127.156 33.4714C127.608 33.4714 127.766 33.8259 127.766 34.2503V35.7712H128.246V34.1958C128.248 33.2903 127.682 33.0721 127.314 33.0721Z" fill="white"/>
<path d="M130.88 33.1319L130.858 33.5298H130.847C130.733 33.3116 130.483 33.0718 130.024 33.0718C129.419 33.0718 128.835 33.5787 128.835 34.4703C128.835 35.2017 129.304 35.7576 129.954 35.7576C130.363 35.7576 130.646 35.5611 130.793 35.3156H130.805V35.61C130.805 36.275 130.445 36.5316 129.954 36.5316C129.682 36.5339 129.414 36.4613 129.18 36.3218L129.06 36.6868C129.27 36.8267 129.619 36.9057 129.938 36.9057C130.27 36.9057 130.637 36.8288 130.898 36.589C131.153 36.3596 131.273 35.9897 131.273 35.3842V33.8535C131.273 33.5312 131.284 33.3186 131.295 33.1284L130.88 33.1319ZM130.804 34.6472C130.805 34.734 130.792 34.8204 130.765 34.9031C130.721 35.0447 130.632 35.1685 130.513 35.2565C130.393 35.3444 130.249 35.3921 130.1 35.3926C129.583 35.3926 129.322 34.9625 129.322 34.4444C129.322 33.8339 129.648 33.4473 130.105 33.4473C130.257 33.446 130.406 33.495 130.527 33.5867C130.648 33.6783 130.736 33.8076 130.777 33.9542C130.797 34.025 130.807 34.0987 130.804 34.1724V34.6472Z" fill="white"/>
<path d="M134.796 32.0967H134.223L132.975 35.7698H133.465L133.846 34.6146H135.146L135.539 35.7698H136.045L134.796 32.0967ZM133.942 34.244L134.302 33.1812C134.372 32.9574 134.432 32.7344 134.487 32.5155H134.498C134.553 32.7253 134.606 32.947 134.689 33.1868L135.048 34.244H133.942Z" fill="white"/>
<path d="M138.357 33.1319L138.336 33.5298H138.324C138.211 33.3116 137.959 33.0718 137.502 33.0718C136.897 33.0718 136.313 33.5787 136.313 34.4703C136.313 35.2017 136.783 35.7576 137.436 35.7576C137.846 35.7576 138.129 35.5611 138.276 35.3156H138.286V35.61C138.286 36.275 137.927 36.5316 137.436 36.5316C137.164 36.534 136.896 36.4614 136.662 36.3218L136.544 36.691C136.757 36.8309 137.103 36.9099 137.421 36.9099C137.754 36.9099 138.125 36.833 138.38 36.5932C138.636 36.3638 138.757 35.9939 138.757 35.3884V33.8577C138.757 33.5354 138.767 33.3228 138.778 33.1326L138.357 33.1319ZM138.281 34.6472C138.282 34.7339 138.269 34.8203 138.243 34.9031C138.199 35.0447 138.11 35.1685 137.991 35.2565C137.871 35.3444 137.727 35.3921 137.578 35.3926C137.06 35.3926 136.799 34.9625 136.799 34.4444C136.799 33.8339 137.126 33.4473 137.584 33.4473C137.736 33.4465 137.884 33.4957 138.005 33.5873C138.126 33.6789 138.214 33.8078 138.255 33.9542C138.275 34.0251 138.284 34.0987 138.281 34.1724V34.6472Z" fill="white"/>
<path d="M141.689 34.3138C141.689 33.8293 141.46 33.0713 140.599 33.0713C139.83 33.0713 139.362 33.7006 139.362 34.4935C139.362 35.2865 139.847 35.8221 140.659 35.8221C140.96 35.83 141.259 35.7742 141.536 35.6585L141.455 35.3151C141.225 35.4139 140.976 35.4616 140.725 35.455C140.245 35.455 139.831 35.1879 139.816 34.539H141.669C141.681 34.4645 141.687 34.3893 141.689 34.3138ZM141.226 34.1936H139.827C139.865 33.8621 140.078 33.4146 140.562 33.4146C141.101 33.4153 141.229 33.8901 141.229 34.1943L141.226 34.1936Z" fill="white"/>
<path d="M143.599 33.0721C143.422 33.0676 143.247 33.1113 143.094 33.1987C142.94 33.2861 142.813 33.4137 142.727 33.5679H142.716L142.689 33.1322H142.264C142.28 33.3504 142.286 33.5735 142.286 33.8462V35.7698H142.767V34.1839C142.766 34.1083 142.777 34.033 142.8 33.9608C142.841 33.8214 142.926 33.6988 143.041 33.6107C143.157 33.5227 143.298 33.4739 143.443 33.4714C143.896 33.4714 144.054 33.8259 144.054 34.2503V35.7712H144.533V34.1958C144.531 33.2903 143.964 33.0721 143.599 33.0721Z" fill="white"/>
<path d="M146.521 35.4433C145.998 35.4433 145.605 35.0671 145.605 34.4567C145.605 33.9064 145.933 33.4595 146.537 33.4595C146.73 33.4524 146.921 33.4952 147.093 33.584L147.202 33.2141C146.993 33.1204 146.766 33.0727 146.537 33.0743C145.676 33.0743 145.12 33.663 145.12 34.4727C145.12 35.2825 145.638 35.8188 146.433 35.8188C146.694 35.8242 146.953 35.7722 147.191 35.6663L147.109 35.3062C146.926 35.3955 146.725 35.4423 146.521 35.4433Z" fill="white"/>
<path d="M149.48 33.1323L148.957 34.6804C148.892 34.8706 148.837 35.0727 148.788 35.23H148.777C148.734 35.0727 148.667 34.865 148.608 34.6909L148.03 33.1323H147.507L148.486 35.5629C148.504 35.6028 148.515 35.6453 148.519 35.6888C148.513 35.7286 148.5 35.767 148.481 35.802C148.39 36.0093 148.251 36.1924 148.077 36.3369C147.953 36.4409 147.811 36.5206 147.658 36.5719L147.777 36.974C147.997 36.9237 148.201 36.8166 148.367 36.6635C148.693 36.3838 148.926 35.9167 149.271 35.0126L149.99 33.1323H149.48Z" fill="white"/>
<path d="M148.196 7.42852C148.152 7.47444 148.096 7.50732 148.034 7.52361L147.661 7.62361C147.033 7.78741 146.397 7.91695 145.756 8.01168H145.748C145.726 8.01483 145.704 8.01483 145.682 8.01168C145.636 8.00299 145.594 7.97979 145.561 7.94543C145.529 7.91107 145.509 7.86735 145.503 7.8206C145.497 7.77385 145.507 7.7265 145.53 7.68542C145.553 7.64435 145.588 7.61167 145.631 7.59214H145.639C145.935 7.46767 146.245 7.3495 146.574 7.23483C146.651 7.20817 146.72 7.1632 146.776 7.1038C146.831 7.04439 146.871 6.97234 146.893 6.89387C146.915 6.81539 146.917 6.73286 146.899 6.65338C146.882 6.5739 146.845 6.49987 146.793 6.43769C146.537 6.13632 146.314 5.85313 146.112 5.57483L146.107 5.56784C146.084 5.53304 146.071 5.49212 146.07 5.45003C146.069 5.40795 146.08 5.36651 146.102 5.33075C146.125 5.295 146.157 5.26645 146.195 5.24859C146.233 5.23072 146.275 5.2243 146.317 5.23011C146.351 5.23511 146.383 5.24805 146.411 5.26786L146.437 5.28884C146.954 5.71738 147.449 6.17226 147.919 6.65166L148.188 6.93136C148.253 6.9976 148.29 7.08598 148.291 7.17841C148.292 7.27084 148.258 7.36032 148.196 7.42852Z" fill="white"/>
<path d="M68.9394 10.7207L63.7119 24.2811H63.6364L58.2816 10.7207H54.6211L61.8184 28.5513H65.3027L72.5251 10.7207H68.9394Z" fill="white"/>
<path d="M75 10.7207V28.3968H78.3081V10.7207H75Z" fill="white"/>
<path d="M94.6468 20.8595C94.293 20.2455 93.7079 19.7111 92.8917 19.2561C92.0755 18.8011 90.9688 18.3898 89.5717 18.022C88.3951 17.684 87.5038 17.4043 86.8978 17.1829C86.2918 16.9614 85.8837 16.73 85.6734 16.4885C85.4579 16.2312 85.3453 15.9031 85.3574 15.5676C85.3574 14.8264 85.673 14.2747 86.3042 13.9125C86.9353 13.5503 87.874 13.3697 89.12 13.3706C89.7447 13.3718 90.3688 13.4094 90.9891 13.4832C91.6282 13.5596 92.2342 13.6398 92.8071 13.7237L94.2965 13.9265L94.7769 11.426L93.7154 11.1463C92.9232 10.9272 92.1179 10.7584 91.3044 10.6408C90.5225 10.5256 89.7334 10.4665 88.9431 10.4639C87.6476 10.4639 86.4734 10.6408 85.4203 10.9946C84.3673 11.3484 83.5342 11.8996 82.9212 12.6483C82.3054 13.3979 81.998 14.3787 81.9989 15.5907C81.9989 16.5501 82.18 17.3327 82.5422 17.9387C82.9045 18.5448 83.5021 19.0575 84.3351 19.4771C85.1672 19.8966 86.2911 20.3162 87.7068 20.7357C88.8499 21.0732 89.7083 21.3762 90.2821 21.6447C90.8534 21.9146 91.2373 22.188 91.4303 22.4663C91.6265 22.7519 91.7282 23.0918 91.7212 23.4383C91.7212 24.1795 91.4221 24.7389 90.8241 25.1164C90.226 25.494 89.3298 25.6833 88.1355 25.6842C87.495 25.6842 86.7794 25.6465 85.9888 25.571C85.1982 25.4954 84.491 25.3987 83.8673 25.2808L82.0493 24.978L81.5186 27.5023L83.0331 27.9323C83.8231 28.1449 84.6242 28.3135 85.4329 28.4371C86.3353 28.575 87.2471 28.6425 88.1599 28.6392C89.4731 28.6392 90.66 28.4413 91.7205 28.0456C92.781 27.6498 93.6229 27.0438 94.2461 26.2275C94.8685 25.4108 95.1798 24.3713 95.1803 23.1089C95.1784 22.2232 95.0006 21.4734 94.6468 20.8595Z" fill="white"/>
<path d="M98.46 10.7207V28.3968H101.767V10.7207H98.46Z" fill="white"/>
<path d="M122.021 14.811C121.302 13.47 120.216 12.3618 118.889 11.6161C117.543 10.8512 115.952 10.4682 114.116 10.4673C112.35 10.4673 110.788 10.846 109.431 11.6036C108.095 12.3425 106.996 13.4461 106.262 14.7858C105.504 16.1493 105.125 17.7319 105.125 19.5336C105.125 21.3517 105.496 22.9424 106.237 24.306C106.955 25.6469 108.042 26.7551 109.368 27.5008C110.715 28.2671 112.297 28.6501 114.116 28.6496C115.9 28.6496 117.47 28.2667 118.826 27.5008C120.161 26.7541 121.259 25.647 121.995 24.306C122.752 22.9429 123.13 21.3605 123.131 19.5588C123.131 17.7571 122.761 16.1745 122.021 14.811ZM119.041 22.841C118.569 23.7501 117.912 24.4362 117.071 24.8996C116.229 25.363 115.244 25.5942 114.116 25.5933C112.989 25.5933 112.004 25.362 111.162 24.8996C110.316 24.4335 109.633 23.7195 109.204 22.8536C108.741 21.9539 108.509 20.8557 108.51 19.5588C108.51 18.2456 108.745 17.1427 109.217 16.25C109.655 15.391 110.342 14.6832 111.186 14.218C112.026 13.7546 113.002 13.5232 114.116 13.5237C115.261 13.5237 116.254 13.7551 117.095 14.218C117.939 14.681 118.622 15.3897 119.053 16.25C119.517 17.1436 119.748 18.2391 119.747 19.5364C119.746 20.8338 119.511 21.9353 119.041 22.841Z" fill="white"/>
<path d="M134.243 10.7207H130.404L123.538 28.3968H126.972L128.288 24.8873L129.377 21.9834L132.275 14.2561H132.348L135.176 21.9834L136.24 24.8873L137.525 28.3968H141.161L134.243 10.7207ZM127.803 21.9834V24.8873H136.793V21.9834H127.803Z" fill="#D02127"/>
<path d="M146.277 25.4941H141.551L142.69 28.3981H148.291C147.56 27.473 146.887 26.5031 146.277 25.4941ZM159.181 17.1578C159.142 17.0648 159.101 16.9739 159.058 16.8844C158.537 15.7833 157.752 14.9645 156.705 14.4279C155.657 13.8914 154.345 13.6236 152.767 13.6245H150.004C151.351 13.6245 152.469 13.8392 153.36 14.2685C154.233 14.679 154.94 15.3738 155.366 16.239C155.813 17.1223 156.036 18.2379 156.036 19.5855C156.036 20.847 155.804 21.9154 155.341 22.7909C154.89 23.6559 154.179 24.3583 153.309 24.7998C152.416 25.2627 151.313 25.4941 150 25.4941H149.492C150.157 26.4765 150.889 27.4112 151.685 28.2911C152.893 28.1386 153.982 27.8261 154.95 27.3534C156.381 26.6542 157.483 25.644 158.258 24.3229C159.032 23.0018 159.419 21.4236 159.42 19.5883C159.426 18.772 159.346 17.9573 159.181 17.1578Z" fill="#D02127"/>
<mask id="mask0_1488_42853" style="mask-type:luminance" maskUnits="userSpaceOnUse" x="144" y="10" width="16" height="8">
<path d="M159.181 17.1572C159.142 17.0642 159.101 16.9733 159.058 16.8838C158.537 15.7827 157.752 14.9639 156.705 14.4274C155.657 13.8908 154.345 13.623 152.767 13.624H144.488L144.244 10.7207H150.106C151.974 10.7207 153.606 11.0615 155.001 11.743C156.362 12.3916 157.496 13.434 158.258 14.735C158.695 15.4869 159.007 16.305 159.181 17.1572Z" fill="white"/>
</mask>
<g mask="url(#mask0_1488_42853)">
<path d="M144.385 10.7212H144.24V17.1577H144.385V10.7212Z" fill="#D02127"/>
<path d="M144.53 10.7213L144.385 10.7212V17.1577L144.53 17.1578V10.7213Z" fill="#CF2127"/>
<path d="M144.675 10.7213H144.53V17.1578H144.675V10.7213Z" fill="#CE2127"/>
<path d="M144.821 10.7213H144.676V17.1578H144.821V10.7213Z" fill="#CD2127"/>
<path d="M144.965 10.7213H144.821V17.1578H144.965V10.7213Z" fill="#CC2027"/>
<path d="M145.111 10.7213H144.965V17.1578H145.111V10.7213Z" fill="#CB2027"/>
<path d="M145.256 10.7213H145.111V17.1578H145.256V10.7213Z" fill="#CA2027"/>
<path d="M145.4 10.7213H145.256V17.1578H145.4V10.7213Z" fill="#C92027"/>
<path d="M145.546 10.7213H145.4V17.1578H145.546V10.7213Z" fill="#C82027"/>
<path d="M145.69 10.7213H145.546V17.1578H145.69V10.7213Z" fill="#C72027"/>
<path d="M145.836 10.7213H145.69V17.1578H145.836V10.7213Z" fill="#C62027"/>
<path d="M145.981 10.7213H145.836V17.1578H145.981V10.7213Z" fill="#C52027"/>
<path d="M146.126 10.7213H145.981V17.1578H146.126V10.7213Z" fill="#C41F27"/>
<path d="M146.271 10.7213H146.126V17.1578H146.271V10.7213Z" fill="#C31F27"/>
<path d="M146.417 10.7213H146.272V17.1578H146.417V10.7213Z" fill="#C21F27"/>
<path d="M146.561 10.7213H146.417V17.1578H146.561V10.7213Z" fill="#C11F27"/>
<path d="M146.706 10.7213H146.561V17.1578H146.706V10.7213Z" fill="#C01F27"/>
<path d="M146.851 10.7213H146.706V17.1578H146.851V10.7213Z" fill="#BF1F27"/>
<path d="M146.996 10.7213H146.851V17.1578H146.996V10.7213Z" fill="#BE1F27"/>
<path d="M147.141 10.7213H146.997V17.1578H147.141V10.7213Z" fill="#BD1F27"/>
<path d="M147.286 10.7213H147.141V17.1578H147.286V10.7213Z" fill="#BC1E27"/>
<path d="M147.431 10.7213H147.286V17.1578H147.431V10.7213Z" fill="#BB1E27"/>
<path d="M147.577 10.7213H147.431V17.1578H147.577V10.7213Z" fill="#BA1E27"/>
<path d="M147.722 10.7213H147.577V17.1578H147.722V10.7213Z" fill="#B91E27"/>
<path d="M147.866 10.7213H147.722V17.1578H147.866V10.7213Z" fill="#B81E27"/>
<path d="M148.011 10.7213H147.866V17.1578H148.011V10.7213Z" fill="#B71E27"/>
<path d="M148.157 10.7213H148.012V17.1578H148.157V10.7213Z" fill="#B61E26"/>
<path d="M148.302 10.7213H148.157V17.1578H148.302V10.7213Z" fill="#B51E26"/>
<path d="M148.447 10.7213H148.302V17.1578H148.447V10.7213Z" fill="#B41D26"/>
<path d="M148.592 10.7213H148.447V17.1578H148.592V10.7213Z" fill="#B31D26"/>
<path d="M148.737 10.7213H148.592V17.1578H148.737V10.7213Z" fill="#B21D26"/>
<path d="M148.882 10.7213H148.737V17.1578H148.882V10.7213Z" fill="#B11D26"/>
<path d="M149.027 10.7213H148.882V17.1578H149.027V10.7213Z" fill="#B01D26"/>
<path d="M149.172 10.7213H149.027V17.1578H149.172V10.7213Z" fill="#AF1D26"/>
<path d="M149.317 10.7213H149.172V17.1578H149.317V10.7213Z" fill="#AE1D26"/>
<path d="M149.462 10.7213H149.317V17.1578H149.462V10.7213Z" fill="#AD1D26"/>
<path d="M149.607 10.7213H149.462V17.1578H149.607V10.7213Z" fill="#AC1C26"/>
<path d="M149.753 10.7213H149.608V17.1578H149.753V10.7213Z" fill="#AB1C26"/>
<path d="M149.897 10.7213H149.753V17.1578H149.897V10.7213Z" fill="#AA1C26"/>
<path d="M150.042 10.7213H149.897V17.1578H150.042V10.7213Z" fill="#A91C26"/>
<path d="M150.187 10.7213H150.042V17.1578H150.187V10.7213Z" fill="#A81C26"/>
<path d="M150.333 10.7213H150.188V17.1578H150.333V10.7213Z" fill="#A71C26"/>
<path d="M150.477 10.7213H150.333V17.1578H150.477V10.7213Z" fill="#A61C26"/>
<path d="M150.622 10.7213H150.477V17.1578H150.622V10.7213Z" fill="#A51C26"/>
<path d="M150.767 10.7213H150.622V17.1578H150.767V10.7213Z" fill="#A41B26"/>
<path d="M150.913 10.7213H150.767V17.1578H150.913V10.7213Z" fill="#A31B26"/>
<path d="M151.058 10.7213H150.913V17.1578H151.058V10.7213Z" fill="#A21B26"/>
<path d="M151.202 10.7213H151.058V17.1578H151.202V10.7213Z" fill="#A11B26"/>
<path d="M151.348 10.7213H151.202V17.1578H151.348V10.7213Z" fill="#A01B26"/>
<path d="M151.493 10.7213H151.348V17.1578H151.493V10.7213Z" fill="#9F1B26"/>
<path d="M151.638 10.7213H151.493V17.1578H151.638V10.7213Z" fill="#9E1B26"/>
<path d="M151.783 10.7213H151.638V17.1578H151.783V10.7213Z" fill="#9D1B26"/>
<path d="M151.928 10.7213H151.783V17.1578H151.928V10.7213Z" fill="#9B1A26"/>
<path d="M152.073 10.7213H151.928V17.1578H152.073V10.7213Z" fill="#9A1A26"/>
<path d="M152.218 10.7213H152.073V17.1578H152.218V10.7213Z" fill="#991A26"/>
<path d="M152.363 10.7213H152.218V17.1578H152.363V10.7213Z" fill="#981A26"/>
<path d="M152.508 10.7213H152.363V17.1578H152.508V10.7213Z" fill="#971A26"/>
<path d="M152.653 10.7213H152.509V17.1578H152.653V10.7213Z" fill="#961A26"/>
<path d="M152.798 10.7213H152.653V17.1578H152.798V10.7213Z" fill="#951A26"/>
<path d="M152.943 10.7213H152.798V17.1578H152.943V10.7213Z" fill="#941926"/>
<path d="M153.088 10.7213H152.943V17.1578H153.088V10.7213Z" fill="#931926"/>
<path d="M153.233 10.7213H153.088V17.1578H153.233V10.7213Z" fill="#921926"/>
<path d="M153.378 10.7213H153.233V17.1578H153.378V10.7213Z" fill="#911926"/>
<path d="M153.523 10.7213H153.378V17.1578H153.523V10.7213Z" fill="#901926"/>
<path d="M153.669 10.7213H153.524V17.1578H153.669V10.7213Z" fill="#8F1926"/>
<path d="M153.814 10.7213H153.669V17.1578H153.814V10.7213Z" fill="#8E1926"/>
<path d="M153.959 10.7213H153.814V17.1578H153.959V10.7213Z" fill="#8D1926"/>
<path d="M154.104 10.7213H153.959V17.1578H154.104V10.7213Z" fill="#8C1826"/>
<path d="M154.249 10.7213H154.104V17.1578H154.249V10.7213Z" fill="#8B1826"/>
<path d="M154.394 10.7213H154.249V17.1578H154.394V10.7213Z" fill="#8A1826"/>
<path d="M154.538 10.7213H154.394V17.1578H154.538V10.7213Z" fill="#891826"/>
<path d="M154.684 10.7213H154.538V17.1578H154.684V10.7213Z" fill="#881826"/>
<path d="M154.829 10.7213H154.684V17.1578H154.829V10.7213Z" fill="#871826"/>
<path d="M154.974 10.7213H154.829V17.1578H154.974V10.7213Z" fill="#861826"/>
<path d="M155.119 10.7213H154.974V17.1578H155.119V10.7213Z" fill="#851826"/>
<path d="M155.265 10.7213H155.12V17.1578H155.265V10.7213Z" fill="#841726"/>
<path d="M155.409 10.7213H155.265V17.1578H155.409V10.7213Z" fill="#831726"/>
<path d="M155.555 10.7213H155.409V17.1578H155.555V10.7213Z" fill="#821725"/>
<path d="M155.7 10.7213H155.555V17.1578H155.7V10.7213Z" fill="#811725"/>
<path d="M155.844 10.7213H155.7V17.1578H155.844V10.7213Z" fill="#801725"/>
<path d="M155.989 10.7213H155.845V17.1578H155.989V10.7213Z" fill="#7F1725"/>
<path d="M156.134 10.7213H155.989V17.1578H156.134V10.7213Z" fill="#7E1725"/>
<path d="M156.279 10.7213H156.134V17.1578H156.279V10.7213Z" fill="#7D1725"/>
<path d="M156.425 10.7213H156.279V17.1578H156.425V10.7213Z" fill="#7C1625"/>
<path d="M156.57 10.7213H156.425V17.1578H156.57V10.7213Z" fill="#7B1625"/>
<path d="M156.714 10.7213H156.57V17.1578H156.714V10.7213Z" fill="#7A1625"/>
<path d="M156.86 10.7213H156.714V17.1578H156.86V10.7213Z" fill="#791625"/>
<path d="M157.005 10.7213H156.86V17.1578H157.005V10.7213Z" fill="#781625"/>
<path d="M157.15 10.7213H157.005V17.1578H157.15V10.7213Z" fill="#771625"/>
<path d="M157.295 10.7213H157.15V17.1578H157.295V10.7213Z" fill="#761625"/>
<path d="M157.44 10.7213H157.295V17.1578H157.44V10.7213Z" fill="#751625"/>
<path d="M157.585 10.7213H157.441V17.1578H157.585V10.7213Z" fill="#741525"/>
<path d="M157.73 10.7213H157.585V17.1578H157.73V10.7213Z" fill="#731525"/>
<path d="M157.875 10.7213H157.73V17.1578H157.875V10.7213Z" fill="#721525"/>
<path d="M158.02 10.7213H157.875V17.1578H158.02V10.7213Z" fill="#711525"/>
<path d="M158.165 10.7213H158.021V17.1578H158.165V10.7213Z" fill="#701525"/>
<path d="M158.31 10.7213H158.165V17.1578H158.31V10.7213Z" fill="#6F1525"/>
<path d="M158.455 10.7213H158.31V17.1578H158.455V10.7213Z" fill="#6E1525"/>
<path d="M158.601 10.7213H158.456V17.1578H158.601V10.7213Z" fill="#6D1525"/>
<path d="M158.745 10.7213H158.601V17.1578H158.745V10.7213Z" fill="#6C1425"/>
<path d="M158.891 10.7213H158.745V17.1578H158.891V10.7213Z" fill="#6B1425"/>
<path d="M159.035 10.7213H158.891V17.1578H159.035V10.7213Z" fill="#6A1425"/>
<path d="M159.181 10.7213H159.036V17.1578H159.181V10.7213Z" fill="#691425"/>
</g>
<path d="M155.614 30.8138C155.664 30.7858 155.723 30.7772 155.779 30.7895C155.835 30.8018 155.885 30.8342 155.918 30.8806C155.952 30.9269 155.968 30.9841 155.963 31.0412C155.957 31.0983 155.931 31.1515 155.889 31.1907C155.729 31.3358 155.549 31.4571 155.355 31.5508C154.358 32.0459 152.012 32.3291 148.762 28.3979C148.011 27.477 147.324 26.5068 146.703 25.494C145.814 24.0463 145.001 22.5525 144.27 21.0188C140.401 13.0048 141.727 7.58363 144.241 6.46904C144.693 6.26906 145.21 6.25927 145.772 6.4124C145.824 6.42624 145.87 6.4574 145.901 6.50072C145.933 6.54404 145.949 6.59689 145.946 6.65049C145.944 6.7041 145.923 6.75522 145.888 6.79535C145.852 6.83549 145.804 6.86222 145.751 6.87111C145.614 6.8946 145.48 6.93426 145.353 6.98927C144.468 7.38085 143.884 8.74856 143.784 10.7225C143.742 11.6931 143.795 12.6653 143.94 13.6258C144.29 16.0388 145.189 18.8883 146.811 21.8188C147.595 23.2312 148.343 24.45 149.049 25.4954C149.714 26.4894 150.443 27.4389 151.231 28.3378C152.605 29.8761 153.743 30.6621 154.578 30.9166C154.876 31.0082 155.334 30.9662 155.599 30.8222L155.614 30.8138Z" fill="white"/>
</svg>
